<svg width="40" height="40" viewBox="0 0 40 40" fill="none" xmlns="http://www.w3.org/2000/svg">
<g clip-path="url(#clip0_19_95)">
<path d="M17.0412 33.0935C16.1735 32.2259 14.7929 32.1852 13.8763 32.9701L15.342 31.5045C16.2531 30.5934 16.2531 29.1164 15.342 28.2055C14.4744 27.3379 13.0936 27.2972 12.1769 28.0822L12.8729 27.3862C13.784 26.4752 13.784 24.9981 12.8729 24.0872C11.9619 23.1762 10.4847 23.1762 9.57365 24.0872L7.22764 26.4331C8.01303 25.5166 7.97248 24.1357 7.10467 23.268C6.19357 22.357 4.71646 22.357 3.80537 23.268L2.15451 24.9188C1.24342 25.8298 1.24342 27.3068 2.15451 28.2177C3.03451 29.0976 4.44232 29.1274 5.35842 28.3077C4.53857 29.2236 4.56842 30.6313 5.44834 31.5113C6.32826 32.3911 7.73615 32.4209 8.65217 31.6013C7.83232 32.5172 7.86217 33.9249 8.74217 34.8049C9.62217 35.6847 11.03 35.7145 11.9461 34.8948C11.1262 35.8107 11.1561 37.2184 12.036 38.0984C12.9471 39.0094 14.4242 39.0094 15.3353 38.0984L17.0412 36.3926C17.9522 35.4815 17.9522 34.0045 17.0412 33.0935Z" fill="white"/>
<path d="M32.4819 29.1467C33.4705 30.0725 35.0223 30.0536 35.9872 29.0888C36.9719 28.1041 36.9719 26.5077 35.9872 25.523L24.001 13.5376L21.0729 16.4649C19.0854 18.4524 15.8515 18.4527 13.8642 16.4654C11.8765 14.4777 11.8763 11.2439 13.8636 9.25647L17.5831 5.52296L14.8185 5.33765L3.44763 16.7074L3.14966 20.8409C4.96716 19.8162 7.33403 20.0995 8.85052 21.7149C11.9344 19.8962 15.8933 22.1028 15.8904 25.7407C17.7618 26.7312 18.7758 28.8957 18.2246 31.0379C20.1924 32.5238 20.631 35.2185 19.3836 37.2239L20.9433 38.7836C21.9281 39.7683 23.5247 39.7683 24.5094 38.7836C25.3494 37.9437 25.4723 36.6589 24.8793 35.6881C25.8697 36.4965 27.3311 36.4391 28.2547 35.5157C29.2174 34.553 29.2383 33.0059 28.3186 32.0172L28.55 32.2486C29.5347 33.2333 31.1313 33.2333 32.1161 32.2486C32.9579 31.4067 33.0793 30.1182 32.4819 29.1467Z" fill="white"/>
<path d="M9.44859 1.67685L0.342188 10.7825C-0.114063 11.2387 -0.114063 11.9784 0.342188 12.4347L2.37937 14.4718L13.138 3.71419L11.1006 1.67685C10.6444 1.22067 9.90484 1.22067 9.44859 1.67685Z" fill="white"/>
<path d="M15.5164 14.8134C16.5928 15.8898 18.3446 15.8896 19.4214 14.8128L23.4671 10.7681C23.7707 10.4645 24.2647 10.4645 24.5684 10.7682L35.0064 21.2062L36.6713 15.1196L25.3397 3.78809C21.3433 5.02793 21.4678 4.93465 21.3436 5.05879L15.5159 10.9086C14.4395 11.985 14.4397 13.7367 15.5164 14.8134Z" fill="white"/>
<path d="M39.6579 11.4621C40.1141 11.0058 40.1141 10.2662 39.6578 9.81007L30.667 0.820147C30.2108 0.363975 29.4712 0.363975 29.0151 0.820225L27.3455 2.48983L37.9878 13.1322L39.6579 11.4621Z" fill="white"/>
</g>
<defs>
<clipPath id="clip0_19_95">
<rect width="40" height="40" fill="white"/>
</clipPath>
</defs>
</svg>
