<svg width="40" height="40" viewBox="0 0 40 40" fill="none" xmlns="http://www.w3.org/2000/svg">
<path d="M26.325 21.875C27.1745 21.8313 27.9722 21.4531 28.5437 20.823C29.1152 20.1929 29.4141 19.3623 29.375 18.5125V14.1375L19.8437 16.7C19.6852 16.7451 19.5211 16.7683 19.3562 16.7688C19.1914 16.7674 19.0275 16.7442 18.8687 16.7L8.74999 14V18.5125C8.71088 19.3623 9.00973 20.1929 9.58125 20.823C10.1528 21.4531 10.9505 21.8313 11.8 21.875H26.325Z" fill="white"/>
<path d="M36.875 15.1124V10.6249C36.8735 10.5566 36.8609 10.4891 36.8375 10.4249C36.8375 10.4249 36.8375 10.3936 36.8375 10.3749C36.8424 10.2338 36.7993 10.0952 36.7153 9.98171C36.6313 9.86822 36.5114 9.78651 36.375 9.74988L19.5 5.21238C19.3931 5.18734 19.2819 5.18734 19.175 5.21238L2.30002 9.74988C2.16367 9.78651 2.04374 9.86822 1.95976 9.98171C1.87577 10.0952 1.83269 10.2338 1.83752 10.3749C1.83269 10.516 1.87577 10.6546 1.95976 10.7681C2.04374 10.8815 2.16367 10.9633 2.30002 10.9999L8.75002 12.6999L19.1938 15.5124C19.2476 15.521 19.3025 15.521 19.3563 15.5124C19.41 15.5218 19.465 15.5218 19.5188 15.5124L29.375 12.8624L35.625 11.1811V15.1186C35.2613 15.2472 34.9461 15.4849 34.7224 15.7992C34.4987 16.1135 34.3774 16.4891 34.375 16.8749V19.3749C34.375 19.5406 34.4409 19.6996 34.5581 19.8168C34.6753 19.934 34.8343 19.9999 35 19.9999H37.5C37.6658 19.9999 37.8248 19.934 37.942 19.8168C38.0592 19.6996 38.125 19.5406 38.125 19.3749V16.8749C38.1239 16.488 38.0032 16.111 37.7794 15.7955C37.5557 15.4799 37.2397 15.2413 36.875 15.1124Z" fill="white"/>
<path d="M36.3563 25.375C36.3075 25.2632 36.227 25.1681 36.1248 25.1015C36.0227 25.0349 35.9032 24.9996 35.7813 25H6.7625C5.1375 25 3.90625 27.15 3.90625 30C3.90625 32.85 5.15625 35 6.7625 35H9.375V30.625H8.75C8.58424 30.625 8.42527 30.5592 8.30806 30.4419C8.19085 30.3247 8.125 30.1658 8.125 30C8.125 29.8342 8.19085 29.6753 8.30806 29.5581C8.42527 29.4409 8.58424 29.375 8.75 29.375H30C30.1658 29.375 30.3247 29.4409 30.4419 29.5581C30.5592 29.6753 30.625 29.8342 30.625 30C30.625 30.1658 30.5592 30.3247 30.4419 30.4419C30.3247 30.5592 30.1658 30.625 30 30.625H18.125V35H35.7813C35.9038 35.0021 36.0242 34.9681 36.1275 34.9023C36.2309 34.8365 36.3126 34.7418 36.3625 34.6299C36.4125 34.518 36.4284 34.3939 36.4084 34.273C36.3884 34.1522 36.3333 34.0398 36.25 33.95C33.75 31.25 33.75 28.75 36.25 26.05C36.3313 25.9599 36.3847 25.8482 36.4035 25.7283C36.4224 25.6084 36.406 25.4857 36.3563 25.375Z" fill="white"/>
<path d="M10.625 37.5C10.6253 37.6154 10.6577 37.7285 10.7183 37.8267C10.779 37.9248 10.8657 38.0043 10.9687 38.0562C11.0725 38.1089 11.1889 38.1315 11.3049 38.1216C11.4208 38.1116 11.5317 38.0695 11.625 38L13.75 36.4062L15.875 38C15.9832 38.0811 16.1148 38.125 16.25 38.125C16.3481 38.1267 16.445 38.103 16.5313 38.0562C16.6343 38.0043 16.721 37.9248 16.7817 37.8267C16.8423 37.7285 16.8747 37.6154 16.875 37.5V30.625H10.625V37.5Z" fill="white"/>
</svg>
