<svg width="40" height="40" viewBox="0 0 40 40" fill="none" xmlns="http://www.w3.org/2000/svg">
<path fill-rule="evenodd" clip-rule="evenodd" d="M35.2333 8.06661V11.8777H32.5444C29.551 11.8807 26.613 11.0703 24.0444 9.53328L20.6444 7.47772C20.4466 7.35812 20.2199 7.29489 19.9888 7.29489C19.7577 7.29489 19.531 7.35812 19.3333 7.47772L15.9444 9.52217C13.3751 11.0577 10.4375 11.8679 7.44438 11.8666H4.7666V8.06661C4.76659 7.72964 4.89969 7.40631 5.13692 7.16699C5.37415 6.92768 5.69631 6.79177 6.03327 6.78884H7.45549C10.6785 6.78961 13.8405 5.90979 16.5999 4.24439L19.9999 2.22217L23.3888 4.2555C26.15 5.91674 29.3109 6.79624 32.5333 6.79995H33.9666C34.3008 6.80566 34.6196 6.94095 34.8559 7.17726C35.0923 7.41358 35.2276 7.73246 35.2333 8.06661Z" fill="white"/>
<path fill-rule="evenodd" clip-rule="evenodd" d="M32.5444 14.4443C29.0913 14.4427 25.7036 13.5017 22.7444 11.7221L19.9999 10.0554L17.2555 11.6888C14.2989 13.4785 10.9115 14.4309 7.45549 14.4443H4.7666V17.7776C4.77438 21.6349 5.87975 25.4102 7.95353 28.6626C10.0273 31.9149 12.9839 34.5099 16.4777 36.1443L19.9999 37.7776L23.4999 36.1443C26.9988 34.5142 29.9607 31.9208 32.0387 28.668C34.1167 25.4152 35.2248 21.6376 35.2333 17.7776V14.4443H32.5444ZM20.6444 25.5554C20.4084 25.7822 20.0939 25.9089 19.7666 25.9089C19.4393 25.9089 19.1248 25.7822 18.8888 25.5554L15.3333 21.9999L17.1222 20.211L19.7888 22.8665L24.2333 18.4221L26.0222 20.211L20.6444 25.5554Z" fill="white"/>
</svg>
