<svg width="40" height="40" viewBox="0 0 40 40" fill="none" xmlns="http://www.w3.org/2000/svg">
<path d="M39.3286 18.2088L33.2664 12.1466V5.14373C33.2664 3.87752 32.2403 2.85135 30.9722 2.85135C29.7071 2.85135 28.681 3.87752 28.681 5.14373V7.56126L24.1672 3.04731C21.9355 0.816866 18.0554 0.820822 15.8288 3.05135L0.671097 18.2088C-0.223699 19.1054 -0.223699 20.5561 0.671097 21.4513C1.5663 22.3476 3.01983 22.3476 3.91471 21.4513L19.071 6.29343C19.5648 5.80227 20.435 5.80227 20.9262 6.29198L36.085 21.4513C36.5345 21.8995 37.1206 22.1224 37.7065 22.1224C38.2935 22.1224 38.8805 21.8992 39.3287 21.4513C40.2238 20.5561 40.2238 19.1054 39.3286 18.2088Z" fill="white"/>
<path d="M20.7961 10.645C20.3558 10.2049 19.6427 10.2049 19.2036 10.645L5.87085 23.9739C5.66035 24.1843 5.54102 24.4716 5.54102 24.7714V34.4929C5.54102 36.7742 7.39068 38.6238 9.67184 38.6238H16.2729V28.4009H23.7254V38.6238H30.3266C32.6077 38.6238 34.4573 36.7742 34.4573 34.493V24.7714C34.4573 24.4716 34.339 24.1843 34.1275 23.9739L20.7961 10.645Z" fill="white"/>
</svg>
