<svg width="40" height="40" viewBox="0 0 40 40" fill="none" xmlns="http://www.w3.org/2000/svg">
<g clip-path="url(#clip0_16_860)">
<path d="M28.2609 21.7393C26.0997 21.7393 24.3479 23.4911 24.3479 25.6523C24.3479 27.8136 26.0997 29.5654 28.2609 29.5654H40.0001V21.7393H28.2609ZM28.2609 26.9566C27.5406 26.9566 26.9566 26.3726 26.9566 25.6522C26.9566 24.9318 27.5406 24.3479 28.2609 24.3479C28.9813 24.3479 29.5653 24.9318 29.5653 25.6522C29.5653 26.3726 28.9813 26.9566 28.2609 26.9566Z" fill="white"/>
<path d="M28.2609 19.1305H34.7826V15.2175C34.7826 13.0598 33.0273 11.3044 30.8695 11.3044H1.30437C0.584297 11.3044 0 11.8887 0 12.6087V38.6957C0 39.4158 0.584297 40.0001 1.30437 40.0001H30.8695C33.0273 40.0001 34.7826 38.2448 34.7826 36.087V32.174H28.2609C24.6646 32.174 21.7391 29.2485 21.7391 25.6523C21.7391 22.056 24.6646 19.1305 28.2609 19.1305Z" fill="white"/>
<path d="M36.087 11.3044H36.0747C36.8973 12.3961 37.3914 13.7484 37.3914 15.2175V19.1305H40.0001V15.2175C40.0001 13.0598 38.2448 11.3044 36.087 11.3044Z" fill="white"/>
<path d="M37.3914 32.1738V36.0869C37.3914 37.556 36.8974 38.9083 36.0747 39.9999H36.087C38.2448 39.9999 40.0001 38.2446 40.0001 36.0869V32.1738H37.3914Z" fill="white"/>
<path d="M21.3571 0.38209C20.8476 -0.127363 20.0221 -0.127363 19.5126 0.38209L18.3662 1.5285L25.5334 8.69553H29.6706L21.3571 0.38209Z" fill="white"/>
<path d="M13.5309 0.382148C13.0215 -0.127383 12.1961 -0.127383 11.6866 0.382148L3.37305 8.69559H21.8445L13.5309 0.382148Z" fill="white"/>
</g>
<defs>
<clipPath id="clip0_16_860">
<rect width="40" height="40" fill="white"/>
</clipPath>
</defs>
</svg>
