<svg width="31" height="31" viewBox="0 0 31 31" fill="none" xmlns="http://www.w3.org/2000/svg">
<rect width="31" height="31" rx="5" fill="#F42929"/>
<g clip-path="url(#clip0_1223_8255)">
<path d="M17.3572 15.4998L25.6152 7.24179C26.1283 6.72917 26.1283 5.89742 25.6152 5.3848C25.1021 4.87174 24.2713 4.87174 23.7582 5.3848L15.5002 13.6428L7.24179 5.3848C6.72873 4.87174 5.89785 4.87174 5.38479 5.3848C4.87174 5.89742 4.87174 6.72917 5.38479 7.24179L13.6432 15.4998L5.38479 23.7578C4.87174 24.2704 4.87174 25.1021 5.38479 25.6148C5.64132 25.8709 5.97753 25.9991 6.31329 25.9991C6.64906 25.9991 6.98526 25.8709 7.24179 25.6143L15.5002 17.3563L23.7582 25.6143C24.0147 25.8709 24.3509 25.9991 24.6867 25.9991C25.0225 25.9991 25.3587 25.8709 25.6152 25.6143C26.1283 25.1017 26.1283 24.27 25.6152 23.7573L17.3572 15.4998Z" fill="white"/>
</g>
<defs>
<clipPath id="clip0_1223_8255">
<rect width="21" height="21" fill="white" transform="translate(5 5)"/>
</clipPath>
</defs>
</svg>
